<?xml version="1.0" standalone="no"?>
<!DOCTYPE svg PUBLIC "-//W3C//DTD SVG 20010904//EN"
 "http://www.w3.org/TR/2001/REC-SVG-20010904/DTD/svg10.dtd">
<svg version="1.0" xmlns="http://www.w3.org/2000/svg"
 width="330.000000pt" height="634.000000pt" viewBox="0 0 330.000000 634.000000"
 preserveAspectRatio="xMidYMid meet">

<g transform="translate(0.000000,634.000000) scale(0.100000,-0.100000)"
fill="#000000" stroke="none">
<path d="M0 3170 l0 -3170 1650 0 1650 0 0 3170 0 3170 -1650 0 -1650 0 0
-3170z m1702 3003 c97 -112 258 -314 258 -323 0 -4 -30 -40 -67 -80 -390 -434
-807 -1060 -1118 -1680 l-56 -111 71 -96 c39 -53 112 -158 162 -234 l90 -137
114 229 c254 513 522 932 852 1334 120 145 275 315 283 309 5 -3 51 -73 103
-157 248 -401 442 -776 636 -1231 l68 -159 -99 -111 c-783 -880 -1281 -2177
-1374 -3583 -4 -57 -11 -103 -15 -103 -4 0 -11 44 -14 98 -29 414 -99 865
-192 1240 l-36 144 23 91 c52 217 145 516 236 762 208 561 465 1043 810 1517
l64 87 -62 123 c-104 211 -202 387 -211 382 -39 -24 -335 -456 -465 -679 -248
-423 -475 -927 -623 -1380 -18 -55 -35 -104 -37 -108 -3 -5 -33 55 -68 133
-219 486 -521 955 -842 1307 l-71 79 53 131 c280 688 698 1402 1159 1983 123
154 265 320 276 320 4 0 46 -44 92 -97z"/>
</g>
</svg>
